<svg
  width="560"
  height="560"
  viewBox="0 0 560 560"
  fill="none"
  xmlns="http://www.w3.org/2000/svg"
>
  <g clip-path="url(#clip0_343_1429)">
    <mask
      id="mask0_343_1429"
      style="mask-type: alpha"
      maskUnits="userSpaceOnUse"
      x="0"
      y="0"
      width="560"
      height="560"
    >
      <rect width="560" height="560" fill="#D9D9D9" />
    </mask>
    <g mask="url(#mask0_343_1429)">
      <rect width="560" height="560" fill="url(#paint0_radial_343_1429)" />
      <path
        d="M242.277 400.21L253.911 338.867L311.551 337.017C311.551 337.017 321.334 379.586 333.497 395.979C335.258 398.353 323.449 461.552 317.368 469.748C311.287 477.945 280.616 470.806 257.084 461.552C238.258 454.148 239.369 417.572 242.277 400.21Z"
        fill="#D37C5E"
      />
      <path
        fill-rule="evenodd"
        clip-rule="evenodd"
        d="M316.427 355.296C313.375 344.955 311.55 337.016 311.55 337.016L253.91 338.866L249.351 362.904C256.851 368.804 266.423 375.494 271.625 376.412C278.004 377.538 301.634 364.324 316.427 355.296Z"
        fill="#B45839"
      />
      <path
        d="M227.47 331.728C221.918 327.762 207.375 282.549 207.375 282.549C207.375 282.549 184.745 280.001 184.745 250.577C184.745 221.153 203.867 225.75 203.938 220.414C201.206 196.705 214.091 150.399 287.49 154.841C360.889 159.283 368.31 202.698 362.846 223.851C369.191 222.705 372.678 227.938 372.678 252.475C372.678 277.012 359.729 279.533 351.796 277.153C343.512 294.34 332.915 327.286 331.646 331.728C330.059 337.281 286.697 363.457 278.5 363.457C270.304 363.457 233.023 335.694 227.47 331.728Z"
        fill="#D37C5E"
      />
      <path
        d="M211.869 223.057C213.773 233.845 209.137 239.186 206.581 240.508C207.524 250.577 203.728 252.475 203.728 252.475C203.728 252.475 205.632 254.373 206.581 259.119C207.53 263.865 206.581 267.661 206.581 267.661H203.728C203.728 267.661 197.063 263.865 196.134 253.424C195.206 242.983 196.249 240.078 197.063 237.864C196.269 238.746 192.726 238.287 184.9 229.403C177.074 220.519 168.726 213.885 171.987 210.712C171.018 210.712 167.968 207.962 163.526 196.963C159.084 185.964 164.319 183.919 167.492 184.272C166.435 179.689 168.179 170.452 171.987 161.356C175.794 152.261 178.861 157.566 179.919 161.356C180.271 156.597 182.193 146.497 187.058 144.17C191.923 141.843 195.431 147.783 196.576 151.044C196.576 145.668 198.057 134.175 203.98 131.214C209.595 128.406 213.119 132.824 214.371 135.769C213.727 133.813 213.721 129.599 217.993 125.133C222.647 120.268 225.749 121.167 226.719 122.224C226.454 117.994 226.666 108.687 229.627 105.302C232.588 101.918 237.736 103.892 239.939 105.302C239.322 104.157 239.304 100.913 244.169 97.1057C249.034 93.2983 257.478 96.5769 261.091 98.6922C262.766 97.5464 267.49 95.2549 272.99 95.2549C278.179 95.2549 280.01 101.219 280.348 104.705C280.721 103.812 283.039 102.538 290.44 101.865C299.747 101.019 303.661 108.387 304.454 112.177C306.481 109.885 313.126 106.677 323.491 112.177C333.708 117.598 334.316 126.891 333.318 131.038C333.932 128.942 337.883 126.277 349.403 131.214C361.248 136.291 359.098 147.96 356.542 153.16C377.271 148.506 390.519 163.478 389.55 173.614C405.203 180.171 393.428 205.959 385.584 218.034C382.411 232.84 368.221 239.186 361.523 240.508C363.64 246.254 357.4 268.833 352.797 270.122C349.112 271.154 350.51 250.4 352.797 248.176C343.913 246.484 345.57 235.837 347.509 230.725C335.876 231.148 333.32 218.739 333.496 212.481C327.573 215.443 324.506 211.247 323.713 208.78C304.464 219.779 298.065 208.78 297.272 201.905C289.446 214.596 278.676 209.837 274.269 205.871C266.443 217.082 257.612 210.542 254.174 205.871C242.696 214.671 231.506 209.428 226.081 204.694C227.46 217.744 217.311 222.377 211.869 223.057Z"
        fill="#2E2E2E"
      />
      <path
        d="M409.381 427.442C406.208 424.481 344.602 385.138 314.195 365.836L304.148 399.415C300.358 408.493 290.874 434.053 277.971 434.053C265.068 434.053 259.287 406.202 256.819 399.415L249.68 372.446C220.203 384.407 165.153 427.442 165.153 427.442C165.153 427.442 127.952 552.068 128.745 560C129.38 566.346 96.5624 565.286 121.152 571.279C121.152 581.855 152.643 550.391 153.172 591.638H368.927L364.432 571.279H427.889C427.889 572.689 427.942 574.399 428.154 569.957C428.418 564.405 413.347 431.144 409.381 427.442Z"
        fill="url(#paint1_linear_343_1429)"
      />
      <path
        d="M292.513 420.833C298.647 414.698 310.052 372.623 314.988 352.352C324.929 360.601 334.642 416.955 338.255 444.1C331.275 432.678 304.852 423.829 292.513 420.833Z"
        fill="#4999DB"
      />
      <path
        d="M265.279 422.683C260.837 412.953 253.91 372.623 251.001 353.674C248.357 353.674 242.382 358.644 239.632 378.528C236.882 398.411 236.9 437.578 237.252 454.677C239.368 438.389 256.818 426.561 265.279 422.683Z"
        fill="#4999DB"
      />
      <path
        d="M277.708 432.202C274.112 432.625 267.925 426.385 265.281 423.212V504.649C265.281 507.293 280.087 504.649 284.582 504.649C288.178 504.649 292.426 448.595 294.101 420.568C290.135 424.27 281.304 431.779 277.708 432.202Z"
        fill="#4999DB"
      />
      <ellipse
        cx="244.8"
        cy="249.318"
        rx="5.28811"
        ry="7.66776"
        transform="rotate(-5.13193 244.8 249.318)"
        fill="#2E2E2E"
      />
      <ellipse
        cx="309.856"
        cy="243.5"
        rx="5.28811"
        ry="7.66776"
        transform="rotate(-5.13193 309.856 243.5)"
        fill="#2E2E2E"
      />
      <path
        fill-rule="evenodd"
        clip-rule="evenodd"
        d="M274.942 261.993C275.976 261.821 276.954 262.519 277.127 263.553C278.415 271.282 279.051 282.783 279.051 289.493C279.051 290.541 278.201 291.391 277.152 291.391C276.104 291.391 275.254 290.541 275.254 289.493C275.254 282.914 274.625 271.635 273.382 264.177C273.209 263.143 273.908 262.165 274.942 261.993Z"
        fill="#B45839"
      />
      <path
        fill-rule="evenodd"
        clip-rule="evenodd"
        d="M274.257 308.271C265.995 309.631 259.102 312.584 255.349 314.835C254.45 315.375 253.284 315.083 252.745 314.184C252.206 313.285 252.497 312.119 253.396 311.58C257.553 309.086 264.898 305.964 273.641 304.524C282.396 303.083 292.677 303.31 302.595 307.674C303.555 308.096 303.99 309.216 303.568 310.176C303.146 311.135 302.025 311.571 301.066 311.149C292.001 307.16 282.508 306.912 274.257 308.271Z"
        fill="#2E2E2E"
      />
      <path
        fill-rule="evenodd"
        clip-rule="evenodd"
        d="M239.898 230.445C235.308 231.807 231.479 234.763 229.394 237.017C228.894 237.557 228.246 237.265 227.947 236.365C227.647 235.465 227.809 234.298 228.308 233.758C230.618 231.261 234.698 228.136 239.555 226.694C244.419 225.251 250.131 225.478 255.641 229.847C256.174 230.27 256.416 231.391 256.181 232.352C255.947 233.313 255.324 233.749 254.791 233.326C249.755 229.333 244.481 229.085 239.898 230.445Z"
        fill="#2E2E2E"
      />
      <path
        fill-rule="evenodd"
        clip-rule="evenodd"
        d="M314.406 226.649C318.997 228.011 322.826 230.967 324.911 233.221C325.41 233.761 326.058 233.469 326.358 232.569C326.657 231.669 326.495 230.502 325.996 229.962C323.687 227.465 319.606 224.34 314.749 222.898C309.885 221.455 304.174 221.682 298.664 226.051C298.13 226.474 297.888 227.595 298.123 228.556C298.358 229.517 298.98 229.953 299.513 229.53C304.549 225.537 309.823 225.289 314.406 226.649Z"
        fill="#2E2E2E"
      />
      <path
        d="M98.8734 391.184C101.193 389.171 137.03 410.547 137.789 412.066C136.207 413.648 121.302 408.895 116.746 408.136C112.19 407.376 96.5536 393.197 98.8734 391.184Z"
        fill="url(#paint2_linear_343_1429)"
      />
      <path
        d="M476.241 391.184C473.921 389.171 438.084 410.547 437.325 412.066C438.907 413.648 453.813 408.895 458.368 408.136C462.924 407.376 478.561 393.197 476.241 391.184Z"
        fill="url(#paint3_linear_343_1429)"
      />
      <path
        d="M154.712 414.78L159.386 577.085H105.285L114.847 429.018C108.404 426.804 91.1183 421.424 91.1183 421.424C91.1183 421.424 56.801 373.967 61.6949 373.967C64.718 373.967 100.611 401.492 100.611 401.492C100.611 401.492 139.931 409.059 154.712 414.78Z"
        fill="#D37C5E"
      />
      <path
        d="M420.402 414.78L415.728 577.085H469.829L460.267 429.018C466.71 426.804 483.996 421.424 483.996 421.424C483.996 421.424 518.313 373.967 513.419 373.967C510.396 373.967 474.504 401.492 474.504 401.492C474.504 401.492 435.183 409.059 420.402 414.78Z"
        fill="#D37C5E"
      />
    </g>
  </g>
  <defs>
    <radialGradient
      id="paint0_radial_343_1429"
      cx="0"
      cy="0"
      r="1"
      gradientUnits="userSpaceOnUse"
      gradientTransform="translate(290.441 560) rotate(-90) scale(472.678)"
    >
      <stop stop-color="#4999DB" />
      <stop offset="1" stop-color="#4999DB" stop-opacity="0" />
    </radialGradient>
    <linearGradient
      id="paint1_linear_343_1429"
      x1="253.875"
      y1="365.836"
      x2="253.875"
      y2="586.927"
      gradientUnits="userSpaceOnUse"
    >
      <stop stop-color="#0148A9" />
      <stop offset="1" stop-color="#1F4984" />
    </linearGradient>
    <linearGradient
      id="paint2_linear_343_1429"
      x1="118.25"
      y1="391.051"
      x2="118.25"
      y2="412.552"
      gradientUnits="userSpaceOnUse"
    >
      <stop offset="0.0285608" stop-color="#D37C5E" />
      <stop offset="1" stop-color="#C97254" />
    </linearGradient>
    <linearGradient
      id="paint3_linear_343_1429"
      x1="456.864"
      y1="391.051"
      x2="456.864"
      y2="412.552"
      gradientUnits="userSpaceOnUse"
    >
      <stop offset="0.0285608" stop-color="#D37C5E" />
      <stop offset="1" stop-color="#C97254" />
    </linearGradient>
    <clipPath id="clip0_343_1429">
      <rect width="560" height="560" rx="8" fill="white" />
    </clipPath>
  </defs>
</svg>
