<svg width="560" height="560" viewBox="0 0 560 560" fill="none" xmlns="http://www.w3.org/2000/svg">
<g clip-path="url(#clip0_343_1452)">
<mask id="mask0_343_1452" style="mask-type:alpha" maskUnits="userSpaceOnUse" x="0" y="0" width="560" height="560">
<rect width="560" height="560" fill="#D9D9D9"/>
</mask>
<g mask="url(#mask0_343_1452)">
<rect width="560" height="560" fill="url(#paint0_radial_343_1452)"/>
<path d="M138.576 367.951C136.884 370.912 152.502 371.652 160.522 371.652L117.16 425.327C100.766 424.798 55.2886 396.771 53.1734 385.666C51.4812 376.782 153.295 285.192 204.413 240.507C207.586 218.086 227.417 212.833 236.935 213.009C243.017 235.924 253.011 282.812 244.339 287.043C235.666 291.273 222.217 283.165 216.576 278.582C191.281 307.138 140.269 364.989 138.576 367.951Z" fill="#D37C5E"/>
<path d="M387.361 599.306L382.866 560.702L450.819 553.564V595.34L387.361 599.306Z" fill="#D37C5E"/>
<path d="M205.966 233.491C206.725 230.454 210.712 225.265 212.61 223.05L239.187 214.508C241.085 238.869 243.933 287.782 240.136 288.542C236.339 289.301 230.961 287.593 228.746 286.643C225.899 278.417 219.634 261.586 217.356 260.067C215.078 258.548 215.141 248.677 215.458 243.932C211.977 241.717 205.207 236.528 205.966 233.491Z" fill="#B45839"/>
<path d="M269.192 400.209L280.826 338.866L338.467 337.016C338.467 337.016 348.25 379.585 360.412 395.978C362.174 398.352 350.365 461.551 344.284 469.747C338.202 477.944 307.531 470.805 283.999 461.551C265.173 454.147 266.284 417.571 269.192 400.209Z" fill="#D37C5E"/>
<path fill-rule="evenodd" clip-rule="evenodd" d="M343.344 355.296C340.291 344.955 338.467 337.016 338.467 337.016L280.826 338.866L276.268 362.904C283.768 368.804 293.34 375.494 298.542 376.412C304.921 377.538 328.551 364.324 343.344 355.296Z" fill="#B45839"/>
<path d="M234.291 282.548C231.118 264.78 230.677 233.721 230.854 220.413C228.122 196.704 241.007 150.398 314.406 154.84C387.805 159.282 395.226 202.697 389.761 223.85C396.107 222.704 408.799 226.547 408.799 251.084C408.799 275.621 392.934 276.995 385.002 274.616C376.717 291.802 359.831 327.285 358.562 331.727C356.975 337.28 313.613 363.456 305.416 363.456C297.219 363.456 259.938 335.693 254.386 331.727C248.833 327.761 238.257 304.758 234.291 282.548Z" fill="#D37C5E"/>
<path d="M233.498 240.507C233.921 252.141 230.677 254.168 229.003 253.728C221.176 251.401 222.393 242.182 223.979 237.863C223.186 238.745 219.643 238.286 211.817 229.402C203.99 220.518 208.556 211.951 211.817 208.779C210.847 208.779 207.797 206.029 203.355 195.03C198.913 184.03 204.149 181.986 207.322 182.338C206.264 177.755 205.101 166.315 208.908 157.22C212.715 148.124 215.782 153.43 216.84 157.22C217.193 152.46 219.114 142.36 223.979 140.033C228.844 137.706 232.352 143.647 233.498 146.908C233.498 141.531 234.978 130.039 240.901 127.077C246.517 124.269 250.041 128.688 251.292 131.633C250.649 129.676 250.642 125.462 254.915 120.996C259.568 116.131 262.67 117.03 263.64 118.088C263.376 113.857 263.587 104.55 266.548 101.166C269.51 97.7812 274.657 99.7554 276.86 101.166C276.243 100.02 276.226 96.7764 281.091 92.969C285.956 89.1616 294.399 92.4402 298.013 94.5554C299.687 93.4097 304.411 91.1182 309.911 91.1182C315.1 91.1182 316.931 97.082 317.269 100.569C317.642 99.6758 319.961 98.4011 327.362 97.7283C336.669 96.8822 340.582 104.25 341.375 108.04C343.402 105.749 350.048 102.54 360.412 108.04C370.63 113.462 371.237 122.754 370.24 126.901C370.853 124.805 374.804 122.14 386.324 127.077C398.169 132.154 396.019 143.823 393.463 149.023C414.192 144.369 417.436 163.477 416.466 173.613C432.119 180.17 420.344 205.958 412.5 218.033C409.327 232.839 395.138 239.185 388.439 240.507C392.881 252.564 385.531 259.456 381.3 261.395C382.975 263.687 385.002 268.64 379.714 270.121C374.426 271.601 376.453 264.921 378.128 261.395C371.782 258.222 376.541 251.26 379.714 248.175C370.83 246.483 372.487 235.836 374.426 230.724C362.792 231.147 360.236 218.738 360.412 212.48C354.49 215.442 351.423 211.246 350.629 208.779C331.381 219.778 324.982 208.779 324.189 201.904C316.362 214.596 305.592 209.836 301.186 205.87C293.359 217.081 284.528 210.541 281.091 205.87C269.613 214.67 258.423 209.427 252.998 204.693C254.377 217.743 244.227 222.376 238.786 223.057C240.69 233.844 236.054 239.185 233.498 240.507Z" fill="#2E2E2E"/>
<path d="M436.297 427.441C433.124 424.48 371.517 385.137 341.111 365.835L331.064 399.414C327.274 408.492 317.79 434.052 304.887 434.052C291.984 434.052 286.203 406.201 283.735 399.414L276.596 372.445C238.081 368.038 147.281 369.801 147.281 369.801C147.281 369.801 103.146 420.831 103.939 428.763C104.574 435.109 153.912 448.682 178.501 454.675C178.501 465.251 179.559 550.39 180.088 591.637H395.843L391.348 571.278H454.805C454.805 572.688 454.858 574.398 455.07 569.956C455.334 564.404 440.263 431.143 436.297 427.441Z" fill="url(#paint1_linear_343_1452)"/>
<path fill-rule="evenodd" clip-rule="evenodd" d="M167.358 369.544C155.203 369.647 147.282 369.801 147.282 369.801C147.282 369.801 103.147 420.831 103.94 428.763C104.178 431.146 111.286 434.549 121.372 438.187L167.358 369.544ZM453.999 557.251C454.715 564.349 455.116 569.009 455.07 569.956C454.859 574.398 454.806 572.688 454.806 571.278H391.349L391.977 574.125C391.821 574.062 391.692 573.994 391.592 573.922C387.785 571.172 390.006 561.142 391.592 556.471C417.51 558.275 440.375 557.841 453.999 557.251Z" fill="#4999DB"/>
<path d="M319.43 420.833C325.564 414.698 336.969 372.623 341.904 352.352C351.846 360.601 361.558 416.955 365.172 444.1C358.191 432.678 331.769 423.829 319.43 420.833Z" fill="#4999DB"/>
<path d="M292.196 422.683C287.754 412.953 280.826 372.623 277.918 353.674C275.274 353.674 269.298 358.644 266.549 378.528C263.799 398.411 263.816 437.578 264.169 454.677C266.284 438.389 283.735 426.561 292.196 422.683Z" fill="#4999DB"/>
<path d="M304.623 432.201C301.027 432.624 294.84 426.384 292.196 423.211V504.648C292.196 507.292 307.003 504.648 311.498 504.648C315.094 504.648 319.342 448.594 321.016 420.567C317.05 424.269 308.219 431.778 304.623 432.201Z" fill="#4999DB"/>
<ellipse cx="271.012" cy="263.913" rx="5.28811" ry="7.66777" transform="rotate(-5.13193 271.012 263.913)" fill="#2E2E2E"/>
<ellipse cx="335.795" cy="258.096" rx="5.28811" ry="7.66776" transform="rotate(-5.13193 335.795 258.096)" fill="#2E2E2E"/>
<path d="M260.516 250.505C267.387 250.153 281.199 250.24 279.288 246.695C278.309 244.659 246.778 248.287 246.896 249.604C247.015 250.921 253.646 250.856 260.516 250.505Z" fill="#2E2E2E"/>
<path d="M335.168 243.799C328.345 244.677 314.769 247.224 316.018 243.395C316.619 241.217 348.291 239.169 348.409 240.486C348.528 241.803 341.991 242.921 335.168 243.799Z" fill="#2E2E2E"/>
<path fill-rule="evenodd" clip-rule="evenodd" d="M294.914 274.671C295.762 274.888 296.275 275.751 296.058 276.6C295.56 278.552 294.996 281.967 294.971 285.731C294.945 289.512 295.464 293.488 297.006 296.668C297.388 297.457 297.059 298.406 296.271 298.788C295.482 299.17 294.533 298.841 294.151 298.052C292.309 294.252 291.77 289.723 291.798 285.709C291.825 281.677 292.425 278.006 292.984 275.815C293.201 274.967 294.065 274.454 294.914 274.671Z" fill="#B45839"/>
<path d="M306.683 310.58C304.039 310.58 305.89 323.007 309.327 322.479C312.765 321.95 310.649 309.523 306.683 310.58Z" fill="#2E2E2E"/>
<path d="M418.989 202.118C419.537 200.897 420.209 199.887 421.004 199.089C421.819 198.284 422.686 197.62 423.608 197.097C424.536 196.561 425.443 196.087 426.331 195.674C427.344 195.192 428.266 194.685 429.098 194.153C429.936 193.609 430.55 192.901 430.941 192.031C431.874 189.952 431.289 188.44 429.184 187.495C428.067 186.994 427.021 186.977 426.046 187.444C425.071 187.912 424.234 188.925 423.534 190.484L417.434 187.745C418.426 185.537 419.663 183.946 421.146 182.973C422.629 182 424.238 181.528 425.973 181.558C427.714 181.574 429.455 181.974 431.196 182.755C432.949 183.543 434.391 184.557 435.519 185.797C436.654 187.025 437.359 188.427 437.635 190.002C437.911 191.578 437.635 193.288 436.807 195.133C436.305 196.25 435.67 197.143 434.901 197.813C434.145 198.488 433.314 199.036 432.407 199.456C431.519 199.869 430.626 200.241 429.728 200.571C428.535 201.003 427.437 201.486 426.433 202.018C425.447 202.544 424.707 203.359 424.211 204.463L418.989 202.118ZM417.902 212.308C416.928 211.87 416.251 211.152 415.872 210.155C415.492 209.157 415.521 208.171 415.959 207.197C416.391 206.235 417.105 205.565 418.103 205.186C419.101 204.806 420.087 204.835 421.061 205.273C422.022 205.705 422.693 206.419 423.072 207.417C423.451 208.415 423.425 209.394 422.993 210.355C422.556 211.33 421.838 212.007 420.841 212.386C419.843 212.765 418.863 212.739 417.902 212.308Z" fill="#4999DB"/>
<path d="M450.986 191.946L440.5 211.543L436.389 209.697L444.049 188.831L450.986 191.946ZM434.396 219.714C433.422 219.276 432.745 218.559 432.366 217.561C431.999 216.569 432.035 215.586 432.472 214.612C432.904 213.651 433.612 212.977 434.597 212.592C435.595 212.213 436.581 212.242 437.555 212.679C438.529 213.117 439.2 213.831 439.566 214.823C439.945 215.821 439.919 216.801 439.488 217.762C439.05 218.736 438.332 219.413 437.335 219.792C436.35 220.178 435.371 220.151 434.396 219.714Z" fill="#4999DB"/>
<path d="M371.6 189.193C369.45 189.806 367.42 190.038 365.511 189.886C363.602 189.735 361.963 189.181 360.594 188.224C359.239 187.263 358.299 185.865 357.776 184.03C357.264 182.236 357.399 180.532 358.182 178.916C358.979 177.297 360.276 175.535 362.072 173.63C361.002 172.839 359.959 171.908 358.942 170.836C357.925 169.763 357.221 168.543 356.831 167.173C356.479 165.941 356.511 164.702 356.926 163.459C357.355 162.211 358.125 161.095 359.236 160.111C360.357 159.11 361.774 158.366 363.486 157.877C365.211 157.385 366.787 157.276 368.213 157.55C369.648 157.807 370.848 158.353 371.812 159.188C372.79 160.02 373.451 161.038 373.795 162.244C374.318 164.079 374.268 165.796 373.643 167.396C373.019 168.996 371.94 170.666 370.408 172.406L377.179 176.983C377.373 176.261 377.461 175.481 377.444 174.642C377.44 173.798 377.284 172.836 376.975 171.754L382.911 170.06C383.517 172.183 383.721 174.065 383.523 175.706C383.325 177.347 382.931 178.822 382.342 180.13C382.659 180.202 382.939 180.226 383.184 180.201C383.442 180.171 383.66 180.131 383.838 180.081C384.167 179.987 384.504 179.846 384.851 179.658C385.207 179.453 385.457 179.293 385.602 179.177L387.044 184.231C386.973 184.295 386.702 184.461 386.231 184.729C385.763 185.011 385.126 185.267 384.318 185.497C383.537 185.72 382.666 185.806 381.703 185.755C380.751 185.686 379.863 185.428 379.039 184.982C378.102 185.901 377.011 186.723 375.767 187.449C374.523 188.174 373.133 188.755 371.6 189.193ZM362.922 165.79C363.098 166.406 363.475 167.025 364.051 167.645C364.628 168.265 365.321 168.875 366.128 169.474C367.054 168.41 367.672 167.463 367.984 166.634C368.295 165.805 368.347 165.027 368.14 164.301C367.921 163.535 367.511 163.007 366.911 162.72C366.307 162.418 365.628 162.375 364.875 162.59C364.149 162.797 363.588 163.194 363.193 163.78C362.794 164.353 362.704 165.023 362.922 165.79ZM364.399 181.785C364.696 182.826 365.413 183.547 366.549 183.948C367.695 184.332 368.912 184.34 370.199 183.973C371.048 183.73 371.805 183.425 372.47 183.058C373.149 182.687 373.742 182.273 374.249 181.817L366.478 176.615C365.599 177.636 364.971 178.549 364.593 179.352C364.229 180.152 364.164 180.963 364.399 181.785Z" fill="#4999DB"/>
<path d="M387.9 170.347L393.159 168.846L392.955 163.462L387.183 165.109L386.962 160.286L392.795 158.621L392.487 149.912L398.752 148.124L399.06 156.833L404.791 155.198L404.483 146.489L410.728 144.707L411.036 153.416L416.561 151.839L416.762 156.669L411.216 158.251L411.399 163.642L417.5 161.901L417.701 166.73L411.58 168.477L411.876 177.145L405.631 178.926L405.315 170.265L399.584 171.9L399.901 180.562L393.615 182.355L393.319 173.688L388.122 175.171L387.9 170.347ZM399.424 167.059L405.155 165.423L404.951 160.039L399.22 161.675L399.424 167.059Z" fill="#4999DB"/>
<path d="M456.694 162.068C455.962 162.824 454.858 163.628 453.383 164.478C451.918 165.311 450.246 166.121 448.368 166.909C446.49 167.697 444.565 168.372 442.593 168.935C439.183 169.908 436.074 170.247 433.265 169.953C430.456 169.658 428.066 168.704 426.095 167.09C424.137 165.471 422.731 163.163 421.875 160.164C421.113 157.493 420.948 154.919 421.382 152.441C421.828 149.959 422.774 147.667 424.218 145.567C425.662 143.467 427.518 141.641 429.786 140.091C432.063 138.523 434.661 137.323 437.577 136.49C440.371 135.693 442.894 135.351 445.148 135.463C447.397 135.561 449.361 136.008 451.039 136.803C452.713 137.584 454.081 138.615 455.143 139.897C456.215 141.161 456.967 142.553 457.401 144.073C458.077 146.442 458.119 148.718 457.528 150.901C456.946 153.066 455.835 154.96 454.196 156.583C452.556 158.206 450.49 159.373 447.998 160.084C447.135 160.33 446.268 160.407 445.398 160.315C444.537 160.205 443.97 159.723 443.697 158.868L443.661 158.745C443.573 159.422 443.21 160.095 442.572 160.766C441.934 161.437 441.033 161.938 439.869 162.27C438.281 162.724 436.892 162.787 435.703 162.46C434.527 162.129 433.549 161.504 432.769 160.587C431.999 159.651 431.426 158.527 431.051 157.212C430.496 155.267 430.395 153.408 430.748 151.634C431.114 149.856 431.869 148.323 433.011 147.034C434.164 145.728 435.658 144.813 437.493 144.289C438.602 143.973 439.556 143.915 440.354 144.117C441.161 144.301 441.636 144.64 441.776 145.133L441.771 143.557L446.598 142.18L446.99 154.218C447.014 154.508 447.043 154.714 447.078 154.838C447.219 155.331 447.402 155.663 447.629 155.835C447.852 155.994 448.196 156.007 448.662 155.874C450.1 155.464 451.14 154.723 451.782 153.651C452.437 152.575 452.776 151.323 452.798 149.895C452.83 148.45 452.635 146.988 452.213 145.509C451.474 142.921 449.924 141.119 447.561 140.105C445.199 139.091 442.114 139.128 438.307 140.214C435.239 141.089 432.73 142.442 430.779 144.272C428.825 146.089 427.513 148.24 426.845 150.726C426.191 153.208 426.276 155.894 427.101 158.783C427.777 161.152 428.834 162.909 430.271 164.054C431.708 165.199 433.411 165.846 435.379 165.995C437.36 166.141 439.494 165.887 441.781 165.234C443.301 164.801 444.808 164.267 446.3 163.634C447.793 163.001 449.145 162.341 450.356 161.655C451.577 160.951 452.535 160.285 453.229 159.658L456.694 162.068ZM439.618 158.432C440.399 158.21 440.958 157.887 441.297 157.465C441.645 157.025 441.824 156.537 441.834 156.001C441.838 155.911 441.828 155.588 441.802 155.032C441.791 154.473 441.774 153.819 441.753 153.069C441.728 152.307 441.699 151.582 441.666 150.895C441.646 150.205 441.633 149.69 441.625 149.352C441.6 149.004 441.564 148.747 441.517 148.583C441.423 148.254 441.225 147.948 440.922 147.665C440.628 147.363 440.084 147.326 439.29 147.552C438.249 147.849 437.457 148.446 436.913 149.342C436.383 150.233 436.071 151.27 435.979 152.451C435.887 153.633 436.005 154.799 436.333 155.949C436.618 156.949 437.046 157.671 437.617 158.115C438.184 158.545 438.851 158.651 439.618 158.432Z" fill="#4999DB"/>
</g>
</g>
<defs>
<radialGradient id="paint0_radial_343_1452" cx="0" cy="0" r="1" gradientUnits="userSpaceOnUse" gradientTransform="translate(290.441 560) rotate(-90) scale(472.678)">
<stop stop-color="#4999DB"/>
<stop offset="1" stop-color="#4999DB" stop-opacity="0"/>
</radialGradient>
<linearGradient id="paint1_linear_343_1452" x1="280.79" y1="365.835" x2="280.79" y2="586.926" gradientUnits="userSpaceOnUse">
<stop stop-color="#0148A9"/>
<stop offset="1" stop-color="#1F4984"/>
</linearGradient>
<clipPath id="clip0_343_1452">
<rect width="560" height="560" rx="8" fill="white"/>
</clipPath>
</defs>
</svg>
