<svg width="1080" height="1080" viewBox="0 0 1080 1080" fill="none" xmlns="http://www.w3.org/2000/svg">
<g clip-path="url(#clip0_369_1179)">
<mask id="mask0_369_1179" style="mask-type:alpha" maskUnits="userSpaceOnUse" x="0" y="0" width="1080" height="1080">
<rect width="1080" height="1080" fill="#D9D9D9"/>
</mask>
<g mask="url(#mask0_369_1179)">
<rect width="1080" height="1080" fill="url(#paint0_radial_369_1179)"/>
<path d="M467.248 771.831L489.685 653.528L600.849 649.959C600.849 649.959 619.716 732.057 643.172 763.672C646.57 768.251 623.795 890.134 612.067 905.941C600.339 921.749 541.188 907.981 495.804 890.134C459.498 875.856 461.639 805.316 467.248 771.831Z" fill="#D37C5E"/>
<path fill-rule="evenodd" clip-rule="evenodd" d="M612.204 691.699C605.152 668.688 600.848 649.959 600.848 649.959L489.684 653.528L480.9 699.842C498.577 713.79 524.093 732.196 534.509 734.034C546.692 736.184 589.725 720.435 612.204 691.699Z" fill="#B45839"/>
<path d="M438.226 645.543C427.968 637.3 404.904 548.655 404.904 548.655C404.904 548.655 361.609 541.278 364.822 484.623C368.034 427.968 404.351 438.907 405.07 428.64C402.398 382.692 432.264 294.937 573.108 311.504C713.951 328.072 723.499 412.478 710.668 452.609C723.012 451.096 729.153 461.554 726.474 508.799C723.794 556.044 698.586 559.484 683.572 554.036C665.744 586.223 641.743 648.504 638.814 656.918C635.153 667.436 548.801 713.103 533.019 712.208C517.237 711.313 448.484 653.786 438.226 645.543Z" fill="#D37C5E"/>
<path fill-rule="evenodd" clip-rule="evenodd" d="M466.322 459.811C457.47 461.562 450.085 465.363 446.064 468.261C445.101 468.956 443.851 468.58 443.274 467.423C442.696 466.266 443.008 464.765 443.971 464.071C448.425 460.861 456.294 456.842 465.661 454.989C475.042 453.133 486.057 453.425 496.683 459.043C497.712 459.586 498.178 461.028 497.726 462.263C497.274 463.498 496.073 464.059 495.045 463.516C485.333 458.382 475.162 458.063 466.322 459.811Z" fill="#2E2E2E"/>
<path fill-rule="evenodd" clip-rule="evenodd" d="M610.018 453.951C618.87 456.14 626.255 460.89 630.276 464.513C631.239 465.381 632.488 464.912 633.066 463.466C633.644 462.019 633.332 460.143 632.369 459.275C627.915 455.263 620.046 450.239 610.678 447.923C601.298 445.604 590.283 445.968 579.656 452.99C578.628 453.669 578.162 455.472 578.614 457.016C579.066 458.56 580.267 459.261 581.295 458.581C591.007 452.164 601.178 451.765 610.018 453.951Z" fill="#2E2E2E"/>
<path d="M420.053 434.598C422.54 455.577 413.031 465.355 407.965 467.621C408.681 487.111 401.164 490.351 401.164 490.351C401.164 490.351 404.624 494.214 405.933 503.456C407.242 512.697 405 519.904 405 519.904L399.506 519.593C399.506 519.593 387.087 511.554 386.44 491.35C385.792 471.145 388.118 465.665 389.926 461.491C388.302 463.101 381.531 461.832 367.431 443.871C353.332 425.911 337.983 412.226 344.609 406.472C342.742 406.366 337.17 400.739 329.818 379.075C322.466 357.411 332.77 354.046 338.841 355.071C337.305 346.131 341.672 328.536 349.997 311.438C358.321 294.341 363.647 304.892 365.27 312.305C366.468 303.179 371.271 283.941 380.892 279.992C390.514 276.043 396.619 287.864 398.47 294.268C399.057 283.916 403.162 261.949 414.89 256.894C426.009 252.1 432.312 260.992 434.401 266.799C433.375 262.962 433.823 254.848 442.537 246.714C452.028 237.855 457.903 239.925 459.655 242.067C459.608 233.892 461.031 215.995 467.103 209.802C473.174 203.608 482.869 207.972 486.958 210.927C485.895 208.654 486.215 202.407 495.998 195.607C505.782 188.807 521.681 196.042 528.408 200.509C531.758 198.486 541.104 194.59 551.693 195.19C561.685 195.757 564.559 207.44 564.83 214.19C565.646 212.512 570.249 210.311 584.572 209.823C602.585 209.21 609.316 223.825 610.429 231.209C614.583 227.018 627.728 221.566 647.085 233.287C666.166 244.842 666.322 262.801 663.947 270.677C665.358 266.708 673.257 262.008 694.899 272.772C717.152 283.841 711.737 306.074 706.248 315.808C746.67 309.111 770.545 339.386 767.571 358.795C796.995 373.13 771.506 421.5 755.085 443.892C747.359 472.056 719.344 482.725 706.302 484.539C713.538 508.24 698.633 520.708 690.275 523.979C693.249 528.574 696.612 538.333 686.268 540.607C675.924 542.88 680.557 530.238 684.166 523.633C672.294 516.831 682.218 503.944 688.664 498.351C671.743 494.122 676.096 473.803 680.387 464.172C657.94 463.716 654.374 439.543 655.397 427.514C643.669 432.569 638.222 424.156 636.964 419.318C598.7 438.395 587.581 416.517 586.804 403.194C570.348 426.777 550.131 416.437 542.079 408.319C525.785 429.051 509.495 415.494 503.387 406.125C480.325 421.816 459.351 410.498 449.423 400.791C450.653 426.068 430.604 433.882 420.053 434.598Z" fill="#2E2E2E"/>
<path d="M922.575 1094.64C922.575 1094.64 995.795 1056.2 1003.12 1037.9C1010.44 1019.59 874.982 909.763 874.982 909.763L809.084 1006.78L922.575 1094.64Z" fill="#C56C4D"/>
<path d="M814.576 799.932C808.457 794.221 664.589 742.765 605.947 705.54L586.57 770.3C579.261 787.808 560.972 837.101 536.088 837.101C511.203 837.101 500.053 783.389 495.294 770.3L481.526 718.288C424.678 741.356 318.508 824.353 318.508 824.353C318.508 824.353 246.765 1064.7 248.295 1080C249.519 1092.24 186.227 1090.19 233.65 1101.75C233.65 1122.15 294.383 1061.47 295.403 1141.02H711.502L702.833 1101.75H825.215C825.215 1104.47 986.236 1004.36 986.644 995.796C987.154 985.088 822.225 807.071 814.576 799.932Z" fill="url(#paint1_linear_369_1179)"/>
<path d="M564.133 811.606C575.963 799.775 597.958 718.629 607.476 679.535C626.65 695.445 645.381 804.127 652.35 856.479C638.888 834.45 587.929 817.385 564.133 811.606Z" fill="#4999DB"/>
<path d="M511.61 815.175C503.044 796.41 489.684 718.629 484.074 682.085C478.975 682.085 467.451 691.671 462.148 730.018C456.844 768.364 456.878 843.901 457.558 876.876C461.638 845.465 495.293 822.654 511.61 815.175Z" fill="#4999DB"/>
<path d="M535.58 833.532C528.645 834.348 516.713 822.314 511.613 816.195V973.252C511.613 978.351 540.169 973.252 548.838 973.252C555.773 973.252 563.966 865.148 567.195 811.096C559.546 818.235 542.515 832.717 535.58 833.532Z" fill="#4999DB"/>
<ellipse cx="479.344" cy="496.252" rx="10.1985" ry="14.7878" transform="rotate(-1.88626 479.344 496.252)" fill="#2E2E2E"/>
<ellipse cx="605.243" cy="492.153" rx="10.1985" ry="14.7878" transform="rotate(-1.88626 605.243 492.153)" fill="#2E2E2E"/>
<path fill-rule="evenodd" clip-rule="evenodd" d="M540.773 516.427C542.783 516.208 544.59 517.66 544.809 519.67C546.445 534.693 546.414 556.907 545.681 569.825C545.567 571.844 543.837 573.388 541.819 573.273C539.8 573.159 538.256 571.429 538.371 569.411C539.089 556.743 539.109 534.957 537.53 520.463C537.311 518.453 538.763 516.646 540.773 516.427Z" fill="#B45839"/>
<path fill-rule="evenodd" clip-rule="evenodd" d="M549.464 612.02C560.849 610.803 570.486 607.306 575.783 604.522C577.052 603.855 578.622 604.344 579.288 605.613C579.955 606.882 579.467 608.451 578.198 609.117C572.331 612.2 562.063 615.893 550.016 617.182C537.953 618.472 523.936 617.366 510.735 610.641C509.458 609.991 508.95 608.428 509.601 607.151C510.251 605.873 511.814 605.365 513.091 606.016C525.157 612.162 538.097 613.236 549.464 612.02Z" fill="#2E2E2E"/>
<path d="M765.153 988.475L922.577 1094.64C922.577 1094.64 1004.95 1056.2 1003.12 1037.9C1001.29 1019.59 783.458 944.543 783.458 944.543C783.458 944.543 756 928.068 746.848 926.237C737.695 924.407 697.424 920.358 697.424 926.237C697.424 929.981 728.543 935.39 734.034 937.22C739.526 939.051 743.187 950.034 743.187 950.034C743.187 950.034 704.746 959.186 688.272 961.017C671.797 962.847 624.204 942.103 624.204 953.695C624.204 962.451 679.119 988.475 693.763 988.475H765.153Z" fill="#D37C5E"/>
<path d="M337.656 1011.66L420.029 1297.22H315.691L257.113 1009.83C244.687 1005.56 238.808 998.847 238.808 998.847C238.808 998.847 220.218 907.322 229.656 907.322C235.486 907.322 346.808 958.576 346.808 958.576C346.808 958.576 359.622 984.203 337.656 1011.66Z" fill="#D37C5E"/>
<path d="M267.254 943.932C271.728 940.049 298.738 953.817 300.202 956.746C307.524 964.068 301.667 994.82 292.88 993.356C284.094 991.891 262.78 947.814 267.254 943.932Z" fill="url(#paint2_linear_369_1179)"/>
<rect x="128.136" y="801.763" width="292.881" height="300.203" fill="url(#paint3_linear_369_1179)"/>
<path opacity="0.2" fill-rule="evenodd" clip-rule="evenodd" d="M377.067 924.148C377.21 925.149 376.515 926.076 375.514 926.219C371.837 926.744 366.902 927.126 361.204 927.567C356.927 927.898 352.219 928.262 347.29 928.746C335.665 929.885 322.519 931.703 309.86 935.32C303.387 937.169 298.56 938.119 294.209 938.417C289.843 938.717 286.032 938.353 281.614 937.656C279.682 937.351 277.629 936.981 275.349 936.571C267.259 935.115 256.316 933.146 237.827 931.724C218.878 930.266 204.338 930.573 193.883 931.538C183.37 932.509 177.111 934.135 174.643 935.232C173.719 935.643 172.637 935.227 172.227 934.303C171.816 933.379 172.232 932.297 173.156 931.887C176.179 930.543 182.916 928.874 193.546 927.893C204.233 926.906 218.982 926.602 238.108 928.073C256.803 929.511 267.961 931.52 276.052 932.977C278.301 933.382 280.313 933.744 282.185 934.04C286.462 934.715 289.973 935.038 293.959 934.765C297.959 934.491 302.514 933.611 308.854 931.799C321.822 928.094 335.218 926.251 346.933 925.102C352.084 924.597 356.857 924.229 361.132 923.9C366.684 923.472 371.394 923.109 374.996 922.595C375.997 922.452 376.924 923.147 377.067 924.148Z" fill="#2E2E2E"/>
<path opacity="0.2" fill-rule="evenodd" clip-rule="evenodd" d="M219.684 872.861C219.523 873.859 220.201 874.798 221.199 874.96C222.965 875.245 225.204 875.454 227.71 875.675C228.055 875.705 228.405 875.736 228.762 875.767C231.017 875.964 233.494 876.18 236.129 876.472C242.231 877.148 249.089 878.222 255.675 880.349C259.125 881.463 261.749 882.054 264.149 882.239C266.566 882.426 268.666 882.196 271.036 881.773C272.073 881.588 273.168 881.365 274.379 881.119C278.644 880.252 284.35 879.091 294.038 878.249C303.975 877.385 311.579 877.569 317.022 878.137C322.526 878.712 325.689 879.666 326.839 880.243C327.742 880.697 328.842 880.332 329.296 879.429C329.75 878.526 329.385 877.426 328.482 876.972C326.736 876.095 323.046 875.085 317.402 874.496C311.698 873.9 303.859 873.72 293.721 874.602C283.801 875.464 277.854 876.675 273.588 877.543C272.411 877.783 271.362 877.996 270.393 878.169C268.179 878.564 266.418 878.743 264.432 878.589C262.428 878.434 260.106 877.933 256.8 876.865C249.873 874.629 242.736 873.521 236.532 872.833C233.852 872.536 231.329 872.316 229.075 872.119C228.72 872.088 228.372 872.058 228.03 872.028C225.499 871.805 223.395 871.606 221.783 871.345C220.785 871.184 219.845 871.863 219.684 872.861Z" fill="#2E2E2E"/>
<path opacity="0.2" fill-rule="evenodd" clip-rule="evenodd" d="M377.067 962.061C377.21 963.061 376.515 963.989 375.514 964.132C371.837 964.657 366.902 965.039 361.204 965.48C356.927 965.811 352.219 966.175 347.29 966.658C335.665 967.798 322.519 969.615 309.86 973.232C303.387 975.082 298.56 976.032 294.209 976.33C289.843 976.629 286.032 976.266 281.614 975.568C279.682 975.263 277.629 974.894 275.349 974.484C267.259 973.028 256.316 971.058 237.827 969.636C218.878 968.179 204.338 968.485 193.883 969.451C183.37 970.422 177.111 972.048 174.643 973.145C173.719 973.555 172.637 973.139 172.227 972.216C171.816 971.292 172.232 970.21 173.156 969.799C176.179 968.456 182.916 966.787 193.546 965.805C204.233 964.818 218.982 964.515 238.108 965.986C256.803 967.424 267.961 969.433 276.052 970.889C278.301 971.294 280.313 971.657 282.185 971.952C286.462 972.627 289.973 972.951 293.959 972.678C297.959 972.404 302.514 971.524 308.854 969.712C321.822 966.007 335.218 964.163 346.933 963.015C352.084 962.51 356.857 962.142 361.132 961.813C366.684 961.385 371.394 961.022 374.996 960.507C375.997 960.364 376.924 961.06 377.067 962.061Z" fill="#2E2E2E"/>
<path opacity="0.2" fill-rule="evenodd" clip-rule="evenodd" d="M172.086 999.973C171.943 1000.97 172.638 1001.9 173.639 1002.04C177.317 1002.57 182.251 1002.95 187.949 1003.39C192.227 1003.72 196.934 1004.09 201.864 1004.57C213.488 1005.71 226.634 1007.53 239.293 1011.14C245.767 1012.99 250.593 1013.94 254.945 1014.24C259.311 1014.54 263.122 1014.18 267.539 1013.48C269.471 1013.18 271.524 1012.81 273.804 1012.4C281.894 1010.94 292.837 1008.97 311.327 1007.55C330.275 1006.09 344.815 1006.4 355.27 1007.36C365.783 1008.33 372.042 1009.96 374.511 1011.06C375.434 1011.47 376.516 1011.05 376.927 1010.13C377.337 1009.2 376.921 1008.12 375.997 1007.71C372.975 1006.37 366.237 1004.7 355.607 1003.72C344.92 1002.73 330.172 1002.43 311.046 1003.9C292.35 1005.34 281.193 1007.34 273.102 1008.8C270.852 1009.21 268.84 1009.57 266.968 1009.86C262.691 1010.54 259.18 1010.86 255.195 1010.59C251.195 1010.32 246.64 1009.44 240.299 1007.62C227.331 1003.92 213.935 1002.08 202.221 1000.93C197.069 1000.42 192.296 1000.05 188.022 999.725C182.469 999.297 177.759 998.934 174.157 998.42C173.156 998.277 172.229 998.972 172.086 999.973Z" fill="#2E2E2E"/>
<path opacity="0.2" fill-rule="evenodd" clip-rule="evenodd" d="M377.067 1037.89C377.21 1038.89 376.515 1039.81 375.514 1039.96C371.837 1040.48 366.902 1040.86 361.204 1041.3C356.927 1041.64 352.219 1042 347.29 1042.48C335.665 1043.62 322.519 1045.44 309.86 1049.06C303.387 1050.91 298.56 1051.86 294.209 1052.15C289.843 1052.45 286.032 1052.09 281.614 1051.39C279.682 1051.09 277.629 1050.72 275.349 1050.31C267.259 1048.85 256.316 1046.88 237.827 1045.46C218.878 1044 204.338 1044.31 193.883 1045.28C183.37 1046.25 177.111 1047.87 174.643 1048.97C173.719 1049.38 172.637 1048.96 172.227 1048.04C171.816 1047.12 172.232 1046.03 173.156 1045.62C176.179 1044.28 182.916 1042.61 193.546 1041.63C204.233 1040.64 218.982 1040.34 238.108 1041.81C256.803 1043.25 267.961 1045.26 276.052 1046.71C278.301 1047.12 280.313 1047.48 282.185 1047.78C286.462 1048.45 289.973 1048.78 293.959 1048.5C297.959 1048.23 302.514 1047.35 308.854 1045.54C321.822 1041.83 335.218 1039.99 346.933 1038.84C352.084 1038.33 356.857 1037.97 361.132 1037.64C366.684 1037.21 371.394 1036.85 374.996 1036.33C375.997 1036.19 376.924 1036.88 377.067 1037.89Z" fill="#2E2E2E"/>
<path opacity="0.2" fill-rule="evenodd" clip-rule="evenodd" d="M377.067 1075.8C377.21 1076.8 376.515 1077.73 375.514 1077.87C371.837 1078.39 366.902 1078.78 361.204 1079.22C356.927 1079.55 352.219 1079.91 347.29 1080.4C335.665 1081.54 322.519 1083.35 309.86 1086.97C303.387 1088.82 298.56 1089.77 294.209 1090.07C289.843 1090.37 286.032 1090 281.614 1089.31C279.682 1089 277.629 1088.63 275.349 1088.22C267.259 1086.76 256.316 1084.8 237.827 1083.37C218.878 1081.92 204.338 1082.22 193.883 1083.19C183.37 1084.16 177.111 1085.78 174.643 1086.88C173.719 1087.29 172.637 1086.88 172.227 1085.95C171.816 1085.03 172.232 1083.95 173.156 1083.54C176.179 1082.19 182.916 1080.52 193.546 1079.54C204.233 1078.56 218.982 1078.25 238.108 1079.72C256.803 1081.16 267.961 1083.17 276.052 1084.63C278.301 1085.03 280.313 1085.39 282.185 1085.69C286.462 1086.36 289.973 1086.69 293.959 1086.41C297.959 1086.14 302.514 1085.26 308.854 1083.45C321.822 1079.74 335.218 1077.9 346.933 1076.75C352.084 1076.25 356.857 1075.88 361.132 1075.55C366.684 1075.12 371.394 1074.76 374.996 1074.24C375.997 1074.1 376.924 1074.8 377.067 1075.8Z" fill="#2E2E2E"/>
<path d="M298.275 850.621C308.881 847.23 289.854 789.818 286.745 788.79C278.446 782.598 260.49 791.742 263.203 800.226C265.917 808.71 287.67 854.013 298.275 850.621Z" fill="url(#paint4_linear_369_1179)"/>
<path d="M279.51 860.788C292.705 856.718 267.963 790.258 264.117 789.096C253.89 781.973 240.162 789.646 243.433 799.502C246.703 809.357 266.315 864.859 279.51 860.788Z" fill="url(#paint5_linear_369_1179)"/>
<path d="M251.928 846.212C262.727 842.899 244.027 788.935 240.882 787.999C232.526 782.244 214.207 791.061 216.87 799.037C219.534 807.013 241.129 849.524 251.928 846.212Z" fill="url(#paint6_linear_369_1179)"/>
<path d="M226.605 842.501C234.993 839.847 220.079 795.335 217.625 794.544C211.08 789.756 196.872 796.89 198.998 803.468C201.124 810.046 218.218 845.155 226.605 842.501Z" fill="url(#paint7_linear_369_1179)"/>
<path d="M165.355 874.373H211.118V953.695L188.237 941.492L165.355 953.695V874.373Z" fill="#0148A9"/>
<circle cx="186.712" cy="889.627" r="36.6102" fill="#4999DB"/>
</g>
</g>
<defs>
<radialGradient id="paint0_radial_369_1179" cx="0" cy="0" r="1" gradientUnits="userSpaceOnUse" gradientTransform="translate(560.136 1080) rotate(-90) scale(911.593)">
<stop stop-color="#4999DB"/>
<stop offset="1" stop-color="#4999DB" stop-opacity="0"/>
</radialGradient>
<linearGradient id="paint1_linear_369_1179" x1="489.615" y1="705.54" x2="489.615" y2="1131.93" gradientUnits="userSpaceOnUse">
<stop stop-color="#0148A9"/>
<stop offset="1" stop-color="#1F4984"/>
</linearGradient>
<linearGradient id="paint2_linear_369_1179" x1="280.826" y1="942.101" x2="280.826" y2="983.568" gradientUnits="userSpaceOnUse">
<stop offset="0.0285608" stop-color="#D37C5E"/>
<stop offset="1" stop-color="#C97254"/>
</linearGradient>
<linearGradient id="paint3_linear_369_1179" x1="274.576" y1="801.763" x2="274.576" y2="1101.97" gradientUnits="userSpaceOnUse">
<stop stop-color="#E8E8E8"/>
<stop offset="1" stop-color="#E1E1E1"/>
</linearGradient>
<linearGradient id="paint4_linear_369_1179" x1="304.025" y1="805.858" x2="262.99" y2="811.824" gradientUnits="userSpaceOnUse">
<stop offset="0.0285608" stop-color="#D37C5E"/>
<stop offset="1" stop-color="#C97254"/>
</linearGradient>
<linearGradient id="paint5_linear_369_1179" x1="287.144" y1="808.566" x2="236.169" y2="815.977" gradientUnits="userSpaceOnUse">
<stop offset="0.0285608" stop-color="#D37C5E"/>
<stop offset="1" stop-color="#C97254"/>
</linearGradient>
<linearGradient id="paint6_linear_369_1179" x1="258.237" y1="803.918" x2="216.53" y2="809.981" gradientUnits="userSpaceOnUse">
<stop offset="0.0285608" stop-color="#D37C5E"/>
<stop offset="1" stop-color="#C97254"/>
</linearGradient>
<linearGradient id="paint7_linear_369_1179" x1="231.243" y1="807.753" x2="198.804" y2="812.468" gradientUnits="userSpaceOnUse">
<stop offset="0.0285608" stop-color="#D37C5E"/>
<stop offset="1" stop-color="#C97254"/>
</linearGradient>
<clipPath id="clip0_369_1179">
<rect width="1080" height="1080" rx="8" fill="white"/>
</clipPath>
</defs>
</svg>
